<svg xmlns="http://www.w3.org/2000/svg" xmlns:xlink="http://www.w3.org/1999/xlink" xmlns:lucid="lucid" width="1741" height="1010.67"><g transform="translate(-99.5 70.16666666666657)" lucid:page-tab-id="0_0"><path d="M0-1258.83h1870.87v2581.66H0z" fill-opacity="0"/><path d="M120 126c0-3.3 2.7-6 6-6h328c3.3 0 6 2.7 6 6v348c0 3.3-2.7 6-6 6H126c-3.3 0-6-2.7-6-6zM540 126c0-3.3 2.7-6 6-6h328c3.3 0 6 2.7 6 6v348c0 3.3-2.7 6-6 6H546c-3.3 0-6-2.7-6-6zM120 566c0-3.3 2.7-6 6-6h328c3.3 0 6 2.7 6 6v348c0 3.3-2.7 6-6 6H126c-3.3 0-6-2.7-6-6z" stroke="#fff" fill-opacity="0"/><path d="M160 166c0-3.3 2.7-6 6-6h128c3.3 0 6 2.7 6 6v128c0 3.3-2.7 6-6 6H166c-3.3 0-6-2.7-6-6zM160 326c0-3.3 2.7-6 6-6h128c3.3 0 6 2.7 6 6v128c0 3.3-2.7 6-6 6H166c-3.3 0-6-2.7-6-6zM580 166c0-3.3 2.7-6 6-6h128c3.3 0 6 2.7 6 6v128c0 3.3-2.7 6-6 6H586c-3.3 0-6-2.7-6-6zM140 597.42c0-3.32 2.7-6 6-6h128c3.3 0 6 2.68 6 6v128c0 3.3-2.7 6-6 6H146c-3.3 0-6-2.7-6-6z" stroke="#fff" fill-opacity="0"/><path d="M120-43.67c0-3.3 2.7-6 6-6h748c3.3 0 6 2.7 6 6v147.34c0 3.3-2.7 6-6 6H126c-3.3 0-6-2.7-6-6z" stroke="#fff" fill="#fff" fill-opacity="0"/><use xlink:href="#a" transform="matrix(1,0,0,1,125,-44.66666666666657) translate(195.1604938271607 87.27777777777771)"/><use xlink:href="#b" transform="matrix(1,0,0,1,125,-44.66666666666657) translate(499.7037037037036 87.27777777777771)"/><path d="M1060 126c0-3.3 2.7-6 6-6h328c3.3 0 6 2.7 6 6v348c0 3.3-2.7 6-6 6h-328c-3.3 0-6-2.7-6-6zM1480 126c0-3.3 2.7-6 6-6h328c3.3 0 6 2.7 6 6v348c0 3.3-2.7 6-6 6h-328c-3.3 0-6-2.7-6-6z" stroke="#fff" fill-opacity="0"/><path d="M1080 166c0-3.3 2.7-6 6-6h128c3.3 0 6 2.7 6 6v128c0 3.3-2.7 6-6 6h-128c-3.3 0-6-2.7-6-6zM1080 326c0-3.3 2.7-6 6-6h128c3.3 0 6 2.7 6 6v128c0 3.3-2.7 6-6 6h-128c-3.3 0-6-2.7-6-6zM1500 166c0-3.3 2.7-6 6-6h128c3.3 0 6 2.7 6 6v128c0 3.3-2.7 6-6 6h-128c-3.3 0-6-2.7-6-6zM1240 166c0-3.3 2.7-6 6-6h128c3.3 0 6 2.7 6 6v128c0 3.3-2.7 6-6 6h-128c-3.3 0-6-2.7-6-6z" stroke="#fff" fill-opacity="0"/><path d="M1060-43.67c0-3.3 2.7-6 6-6h748c3.3 0 6 2.7 6 6v147.34c0 3.3-2.7 6-6 6h-748c-3.3 0-6-2.7-6-6z" stroke="#fff" fill="#fff" fill-opacity="0"/><use xlink:href="#c" transform="matrix(1,0,0,1,1065,-44.66666666666657) translate(216.07407407407428 87.27777777777771)"/><path d="M1500 326c0-3.3 2.7-6 6-6h128c3.3 0 6 2.7 6 6v128c0 3.3-2.7 6-6 6h-128c-3.3 0-6-2.7-6-6zM1660 166c0-3.3 2.7-6 6-6h128c3.3 0 6 2.7 6 6v128c0 3.3-2.7 6-6 6h-128c-3.3 0-6-2.7-6-6zM720 333.12c0-3.32 2.7-6 6-6h128c3.3 0 6 2.68 6 6v128c0 3.3-2.7 6-6 6H726c-3.3 0-6-2.7-6-6z" stroke="#fff" fill-opacity="0"/><defs><path fill="#fff" d="M127-220V0H93v-220H8v-28h204v28h-85" id="d"/><path fill="#fff" d="M114-163C36-179 61-72 57 0H25l-1-190h30c1 12-1 29 2 39 6-27 23-49 58-41v29" id="e"/><path fill="#fff" d="M141-36C126-15 110 5 73 4 37 3 15-17 15-53c-1-64 63-63 125-63 3-35-9-54-41-54-24 1-41 7-42 31l-33-3c5-37 33-52 76-52 45 0 72 20 72 64v82c-1 20 7 32 28 27v20c-31 9-61-2-59-35zM48-53c0 20 12 33 32 33 41-3 63-29 60-74-43 2-92-5-92 41" id="f"/><path fill="#fff" d="M85-194c31 0 48 13 60 33l-1-100h32l1 261h-30c-2-10 0-23-3-31C134-8 116 4 85 4 32 4 16-35 15-94c0-66 23-100 70-100zm9 24c-40 0-46 34-46 75 0 40 6 74 45 74 42 0 51-32 51-76 0-42-9-74-50-73" id="g"/><path fill="#fff" d="M24-231v-30h32v30H24zM24 0v-190h32V0H24" id="h"/><path fill="#fff" d="M59-47c-2 24 18 29 38 22v24C64 9 27 4 27-40v-127H5v-23h24l9-43h21v43h35v23H59v120" id="i"/><path fill="#fff" d="M100-194c62-1 85 37 85 99 1 63-27 99-86 99S16-35 15-95c0-66 28-99 85-99zM99-20c44 1 53-31 53-75 0-43-8-75-51-75s-53 32-53 75 10 74 51 75" id="j"/><path fill="#fff" d="M117-194c89-4 53 116 60 194h-32v-121c0-31-8-49-39-48C34-167 62-67 57 0H25l-1-190h30c1 10-1 24 2 32 11-22 29-35 61-36" id="k"/><path fill="#fff" d="M24 0v-261h32V0H24" id="l"/><g id="a"><use transform="matrix(0.17283950617283927,0,0,0.17283950617283927,0,0)" xlink:href="#d"/><use transform="matrix(0.17283950617283927,0,0,0.17283950617283927,35.60493827160489,0)" xlink:href="#e"/><use transform="matrix(0.17283950617283927,0,0,0.17283950617283927,56.172839506172764,0)" xlink:href="#f"/><use transform="matrix(0.17283950617283927,0,0,0.17283950617283927,90.74074074074062,0)" xlink:href="#g"/><use transform="matrix(0.17283950617283927,0,0,0.17283950617283927,125.30864197530848,0)" xlink:href="#h"/><use transform="matrix(0.17283950617283927,0,0,0.17283950617283927,138.9629629629628,0)" xlink:href="#i"/><use transform="matrix(0.17283950617283927,0,0,0.17283950617283927,156.2469135802467,0)" xlink:href="#h"/><use transform="matrix(0.17283950617283927,0,0,0.17283950617283927,169.901234567901,0)" xlink:href="#j"/><use transform="matrix(0.17283950617283927,0,0,0.17283950617283927,204.4691358024689,0)" xlink:href="#k"/><use transform="matrix(0.17283950617283927,0,0,0.17283950617283927,239.03703703703673,0)" xlink:href="#f"/><use transform="matrix(0.17283950617283927,0,0,0.17283950617283927,273.60493827160457,0)" xlink:href="#l"/></g><path fill="#fff" d="M33 0v-248h34V0H33" id="m"/><g id="b"><use transform="matrix(0.17283950617283927,0,0,0.17283950617283927,0,0)" xlink:href="#m"/><use transform="matrix(0.17283950617283927,0,0,0.17283950617283927,17.283950617283928,0)" xlink:href="#d"/></g><path fill="#fff" d="M194 0L95-120 63-95V0H30v-248h33v124l119-124h40L117-140 236 0h-42" id="n"/><path fill="#fff" d="M84 4C-5 8 30-112 23-190h32v120c0 31 7 50 39 49 72-2 45-101 50-169h31l1 190h-30c-1-10 1-25-2-33-11 22-28 36-60 37" id="o"/><path fill="#fff" d="M115-194c53 0 69 39 70 98 0 66-23 100-70 100C84 3 66-7 56-30L54 0H23l1-261h32v101c10-23 28-34 59-34zm-8 174c40 0 45-34 45-75 0-40-5-75-45-74-42 0-51 32-51 76 0 43 10 73 51 73" id="p"/><path fill="#fff" d="M100-194c63 0 86 42 84 106H49c0 40 14 67 53 68 26 1 43-12 49-29l28 8c-11 28-37 45-77 45C44 4 14-33 15-96c1-61 26-98 85-98zm52 81c6-60-76-77-97-28-3 7-6 17-6 28h103" id="q"/><path fill="#fff" d="M135-143c-3-34-86-38-87 0 15 53 115 12 119 90S17 21 10-45l28-5c4 36 97 45 98 0-10-56-113-15-118-90-4-57 82-63 122-42 12 7 21 19 24 35" id="r"/><g id="c"><use transform="matrix(0.17283950617283927,0,0,0.17283950617283927,0,0)" xlink:href="#n"/><use transform="matrix(0.17283950617283927,0,0,0.17283950617283927,41.481481481481424,0)" xlink:href="#o"/><use transform="matrix(0.17283950617283927,0,0,0.17283950617283927,76.04938271604928,0)" xlink:href="#p"/><use transform="matrix(0.17283950617283927,0,0,0.17283950617283927,110.61728395061714,0)" xlink:href="#q"/><use transform="matrix(0.17283950617283927,0,0,0.17283950617283927,145.185185185185,0)" xlink:href="#e"/><use transform="matrix(0.17283950617283927,0,0,0.17283950617283927,165.75308641975286,0)" xlink:href="#k"/><use transform="matrix(0.17283950617283927,0,0,0.17283950617283927,200.32098765432073,0)" xlink:href="#q"/><use transform="matrix(0.17283950617283927,0,0,0.17283950617283927,234.88888888888857,0)" xlink:href="#i"/><use transform="matrix(0.17283950617283927,0,0,0.17283950617283927,252.1728395061725,0)" xlink:href="#q"/><use transform="matrix(0.17283950617283927,0,0,0.17283950617283927,286.74074074074036,0)" xlink:href="#r"/></g></defs></g></svg>